HIERARCHY
ROOT Hips
{
	OFFSET 0.000000 0.000000 0.000000
	CHANNELS 6 Xposition Yposition Zposition Xrotation Yrotation Zrotation
	JOINT LeftUpLeg_virtual
	{
		OFFSET 0.000000 0.000000 0.000000
		CHANNELS 3 Xrotation Yrotation Zrotation
		JOINT LeftUpLeg
		{
			OFFSET 13.026900 -6.336304 -1.092800
			CHANNELS 3 Xrotation Yrotation Zrotation
			JOINT LeftLeg
			{
				OFFSET 0.524474 -46.096886 9.782700
				CHANNELS 3 Xrotation Yrotation Zrotation
				JOINT LeftFoot
				{
					OFFSET -0.524474 -53.427422 -12.948200
					CHANNELS 3 Xrotation Yrotation Zrotation
					JOINT LeftToeBase
					{
						OFFSET 0.192200 -14.009700 16.364100
						CHANNELS 3 Xrotation Yrotation Zrotation
						JOINT LeftToe_End
						{
							OFFSET -1.784700 -0.561700 9.474800
							CHANNELS 3 Xrotation Yrotation Zrotation
							End Site
							{
								OFFSET 0 0 0
							}
						}
					}
				}
			}
		}
	}
	JOINT RightUpLeg_virtual
	{
		OFFSET 0.000000 0.000000 0.000000
		CHANNELS 3 Xrotation Yrotation Zrotation
		JOINT RightUpLeg
		{
			OFFSET -12.883000 -6.336304 -1.092800
			CHANNELS 3 Xrotation Yrotation Zrotation
			JOINT RightLeg
			{
				OFFSET -0.524587 -46.096825 9.782800
				CHANNELS 3 Xrotation Yrotation Zrotation
				JOINT RightFoot
				{
					OFFSET 0.524587 -53.427383 -12.948300
					CHANNELS 3 Xrotation Yrotation Zrotation
					JOINT RightToeBase
					{
						OFFSET -0.192200 -14.009700 16.364100
						CHANNELS 3 Xrotation Yrotation Zrotation
						JOINT RightToe_End
						{
							OFFSET 1.784700 -0.561700 9.474800
							CHANNELS 3 Xrotation Yrotation Zrotation
							End Site
							{
								OFFSET 0 0 0
							}
						}
					}
				}
			}
		}
	}
	JOINT Spine_virtual
	{
		OFFSET 0.000000 0.000000 0.000000
		CHANNELS 3 Xrotation Yrotation Zrotation
		JOINT Spine
		{
			OFFSET 0.072000 7.257294 -0.789700
			CHANNELS 3 Xrotation Yrotation Zrotation
			JOINT Spine1
			{
				OFFSET 0.000000 12.508769 -0.658067
				CHANNELS 3 Xrotation Yrotation Zrotation
				JOINT Spine1_split
				{
					OFFSET 0.000000 12.508769 -0.658067
					CHANNELS 3 Xrotation Yrotation Zrotation
					JOINT Spine2
					{
						OFFSET 0.000000 12.508769 -0.658067
						CHANNELS 3 Xrotation Yrotation Zrotation
						JOINT Neck_virtual
						{
							OFFSET 0.000000 0.000000 0.000000
							CHANNELS 3 Xrotation Yrotation Zrotation
							JOINT Neck
							{
								OFFSET 0.000000 14.033295 7.520400
								CHANNELS 3 Xrotation Yrotation Zrotation
								JOINT Head
								{
									OFFSET 0.000000 8.198502 5.703100
									CHANNELS 3 Xrotation Yrotation Zrotation
									JOINT HeadTop_End
									{
										OFFSET 0.000000 17.760803 13.332701
										CHANNELS 3 Xrotation Yrotation Zrotation
										End Site
										{
											OFFSET 0 0 0
										}
									}
								}
							}
						}
						JOINT LeftShoulder_virtual
						{
							OFFSET 0.000000 0.000000 0.000000
							CHANNELS 3 Xrotation Yrotation Zrotation
							JOINT LeftShoulder
							{
								OFFSET 6.292450 5.785301 -0.669000
								CHANNELS 3 Xrotation Yrotation Zrotation
								JOINT LeftShoulder_split
								{
									OFFSET 6.292450 5.785301 -0.669000
									CHANNELS 3 Xrotation Yrotation Zrotation
									JOINT LeftArm
									{
										OFFSET 13.907140 -6.093903 1.965100
										CHANNELS 3 Xrotation Yrotation Zrotation
										JOINT LeftForeArm
										{
											OFFSET 34.140198 0.000000 0.000000
											CHANNELS 3 Xrotation Yrotation Zrotation
											JOINT LeftHand
											{
												OFFSET 40.960209 0.000000 0.000000
												CHANNELS 3 Xrotation Yrotation Zrotation
												End Site
												{
													OFFSET 0 0 0
												}
											}
										}
									}
								}
							}
						}
						JOINT RightShoulder_virtual
						{
							OFFSET 0.000000 0.000000 0.000000
							CHANNELS 3 Xrotation Yrotation Zrotation
							JOINT RightShoulder
							{
								OFFSET -6.292450 5.785301 -0.669000
								CHANNELS 3 Xrotation Yrotation Zrotation
								JOINT RightShoulder_split
								{
									OFFSET -6.292450 5.785301 -0.669000
									CHANNELS 3 Xrotation Yrotation Zrotation
									JOINT RightArm
									{
										OFFSET -13.907140 -6.093903 1.965100
										CHANNELS 3 Xrotation Yrotation Zrotation
										JOINT RightForeArm
										{
											OFFSET -34.140198 0.000000 0.000000
											CHANNELS 3 Xrotation Yrotation Zrotation
											JOINT RightHand
											{
												OFFSET -40.960209 0.000000 0.000000
												CHANNELS 3 Xrotation Yrotation Zrotation
												End Site
												{
													OFFSET 0 0 0
												}
											}
										}
									}
								}
							}
						}
					}
				}
			}
		}
	}
}
MOTION
Frames: 4
Frame Time: 0.03333333
3.601266 91.101265 -10.056835 0.000000 0.000000 0.000000 8.887874 -3.078521 4.452105 -55.666721 -0.954684 20.048157 49.337936 -5.695439 5.166607 6.340387 6.477605 -27.771037 0.248173 -3.647591 1.642503 0.000000 0.000000 0.000000 9.196589 -3.027384 4.490310 -38.416075 -6.148099 -28.055506 52.153836 17.044266 -7.288568 -14.015675 -17.984178 33.740137 2.591239 6.647185 -8.197242 0.000000 0.000000 0.000000 9.073891 4.188724 3.215398 3.850217 -0.155471 -2.337038 9.557042 -0.301567 1.134130 0.062713 0.153560 -0.100947 0.000000 0.000000 0.000000 8.564684 2.391803 0.971299 -2.111552 -3.048828 -7.897589 -32.526928 2.833373 -6.329673 0.000000 0.000000 0.000000 7.099383 0.415697 -0.424600 4.586382 -23.955925 -2.142156 -2.960751 -5.264336 -0.054590 -16.154197 1.259164 -40.156820 -164.161848 -67.508866 -163.480359 0.000000 0.000000 0.000000 9.209677 1.603205 0.757005 -0.509570 7.261226 6.151740 5.308048 4.372868 4.580114 8.597741 2.722756 39.042809 -87.758273 84.601196 94.155373 0.000000 0.000000 0.000000 
3.656455 91.110344 -9.960506 0.000000 0.000000 0.000000 8.915378 -3.111673 4.423788 -55.655783 -1.063063 20.061295 49.434949 -5.699311 5.177583 6.425393 6.496254 -27.857164 0.234282 -3.660796 1.673348 0.000000 0.000000 0.000000 9.192222 -3.022190 4.455826 -38.432371 -6.146190 -28.051998 52.106034 17.051207 -7.275826 -13.947155 -18.002454 33.797169 2.597325 6.643080 -8.196278 0.000000 0.000000 0.000000 9.052384 4.152569 3.155048 3.799460 -0.146861 -2.358127 9.596636 -0.321533 1.129226 0.067942 0.168712 -0.103873 0.000000 0.000000 0.000000 8.564565 2.370175 0.971110 -2.046627 -2.943789 -7.963234 -32.384396 3.121463 -6.282997 0.000000 0.000000 0.000000 7.126097 0.398947 -0.414998 4.581623 -23.978557 -2.159098 -2.909098 -5.274567 -0.100893 -16.340679 1.124612 -40.267500 -164.150196 -67.616496 -163.439665 0.000000 0.000000 0.000000 9.224066 1.570435 0.749726 -0.505370 7.431748 6.139814 5.547226 4.618771 4.516601 8.680813 2.642163 38.936252 -89.091608 84.627171 95.507054 0.000000 0.000000 0.000000 
3.735472 91.118042 -9.844311 0.000000 0.000000 0.000000 8.979933 -3.214274 4.390792 -55.620525 -1.254736 20.008129 49.582727 -5.629497 5.179068 6.427936 6.613906 -27.830109 0.135438 -3.665959 1.630995 0.000000 0.000000 0.000000 9.214034 -3.130764 4.433242 -38.496435 -6.105073 -28.028766 52.009090 17.034956 -7.264959 -13.838808 -18.031455 33.802019 2.732223 6.626191 -8.224579 0.000000 0.000000 0.000000 9.036292 4.076124 3.089296 3.721181 -0.105914 -2.392928 9.644728 -0.349897 1.121623 0.073441 0.165910 -0.102773 0.000000 0.000000 0.000000 8.563142 2.337380 0.968743 -1.947027 -2.765459 -8.079406 -31.979130 3.564722 -6.301244 0.000000 0.000000 0.000000 7.160587 0.371349 -0.416511 4.559125 -23.963273 -2.129577 -2.743921 -5.275607 -0.144420 -16.634473 0.968201 -40.505733 -164.208457 -67.938690 -163.510125 0.000000 0.000000 0.000000 9.254266 1.535096 0.736888 -0.474815 7.639771 6.108950 5.613209 4.737621 4.506910 8.988845 2.811930 38.452923 -88.368612 84.692228 94.826405 0.000000 0.000000 0.000000 
3.811105 91.104591 -9.740208 0.000000 0.000000 0.000000 9.047482 -3.358481 4.356211 -55.577106 -1.484784 19.919202 49.761606 -5.522811 5.178885 6.353359 6.809518 -27.715834 -0.029614 -3.661122 1.528534 0.000000 0.000000 0.000000 9.261535 -3.309112 4.413445 -38.600035 -6.018523 -27.975509 51.917183 16.988723 -7.254793 -13.658911 -18.067081 33.786743 2.886403 6.604158 -8.270557 0.000000 0.000000 0.000000 9.019734 3.997430 3.035940 3.633364 -0.037429 -2.435761 9.691145 -0.388374 1.105569 0.078991 0.150283 -0.094192 0.000000 0.000000 0.000000 8.553810 2.294614 0.959012 -1.834551 -2.521422 -8.224846 -31.373630 4.120995 -6.376703 0.000000 0.000000 0.000000 7.194934 0.330999 -0.436337 4.519746 -23.939081 -2.068700 -2.511212 -5.252067 -0.200739 -16.966267 0.791791 -40.798069 -164.302974 -68.382782 -163.662971 0.000000 0.000000 0.000000 9.286931 1.492191 0.715158 -0.421328 7.874312 6.059060 5.539116 4.765129 4.579673 9.429161 3.142568 37.693010 -86.277932 84.772804 92.806008 0.000000 0.000000 0.000000 
